<svg xmlns="http://www.w3.org/2000/svg" width="28" height="28" version="1.1" id="svg13" enable-background="new"><defs id="defs17"><filter style="color-interpolation-filters:srgb" id="filter828"><feColorMatrix values="0.21 0.72 0.072 0 0 0.21 0.72 0.072 0 0 0.21 0.72 0.072 0 0 0 0 0 1 0" id="feColorMatrix826"/></filter><filter style="color-interpolation-filters:srgb" id="filter843"><feBlend mode="darken" in2="BackgroundImage" id="feBlend845"/></filter></defs><linearGradient id="fca3HHtBCaKhxIbwZg9X9a" x1="24" x2="24" y1="6.255" y2="42.255" gradientUnits="userSpaceOnUse"><stop offset="0" stop-color="#ffa402" id="stop2"/><stop offset="1" stop-color="#ff6000" id="stop4"/></linearGradient><g id="g833" transform="matrix(.64815 0 0 .64815 -1.556 -1.556)" style="filter:url(#filter843)"><path style="fill:url(#fca3HHtBCaKhxIbwZg9X9a);filter:url(#filter828)" id="path7" d="M13.083 42h21.834A7.083 7.083 0 0 0 42 34.917V13.083A7.083 7.083 0 0 0 34.917 6H13.083A7.083 7.083 0 0 0 6 13.083v21.834A7.083 7.083 0 0 0 13.083 42Z"/><path id="path9" d="M23 34c-2.347-4.355-8-5-12-1V17c4-4 9-3 12 0z" style="fill:#fff"/><path id="path11" d="M25 34c2.347-4.355 8-5 12-1V17c-4-4-9-3-12 0z" style="fill:#fff"/></g></svg>