<svg aria-hidden="true" style="width:0;height:0;position:absolute;overflow:hidden" xmlns="http://www.w3.org/2000/svg"><defs><symbol id="icon-arrow_right" viewBox="0 0 18 32"><path d="M12.343 17.622a2.279 2.279 0 0 0 .676-1.623 2.284 2.284 0 0 0-.676-1.623L1.852 3.907a2.279 2.279 0 0 1-.676-1.623A2.284 2.284 0 0 1 1.852.661a2.285 2.285 0 0 1 3.222 0l10.491 10.491a6.859 6.859 0 0 1 0 9.692L5.074 31.335a2.289 2.289 0 0 1-3.898-1.623 2.29 2.29 0 0 1 .676-1.623l10.491-10.468z"/></symbol><symbol id="icon-arrow_right2" viewBox="0 0 37 32"><path d="M12.343 17.622a2.279 2.279 0 0 0 .676-1.623 2.284 2.284 0 0 0-.676-1.623L1.852 3.907a2.279 2.279 0 0 1-.676-1.623A2.284 2.284 0 0 1 1.852.661a2.285 2.285 0 0 1 3.222 0l10.491 10.491a6.859 6.859 0 0 1 0 9.692L5.074 31.335a2.289 2.289 0 0 1-3.898-1.623 2.29 2.29 0 0 1 .676-1.623zM30.147 17.622a2.279 2.279 0 0 0 .676-1.623 2.284 2.284 0 0 0-.676-1.623L19.656 3.907a2.279 2.279 0 0 1-.676-1.623 2.284 2.284 0 0 1 .676-1.623 2.285 2.285 0 0 1 3.222 0l10.491 10.491a6.859 6.859 0 0 1 0 9.692L22.878 31.335a2.289 2.289 0 0 1-3.723-2.502 2.29 2.29 0 0 1 .5-.744z"/></symbol><symbol id="icon-arrow_left2" viewBox="0 0 37 32"><path d="M5.943 17.622a2.279 2.279 0 0 1-.676-1.623 2.284 2.284 0 0 1 .676-1.623L16.434 3.907a2.279 2.279 0 0 0 .676-1.623 2.284 2.284 0 0 0-.676-1.623 2.285 2.285 0 0 0-3.222 0L2.721 11.152a6.859 6.859 0 0 0 0 9.692l10.491 10.491a2.289 2.289 0 0 0 3.898-1.623 2.287 2.287 0 0 0-.676-1.623zM24.38 17.622a2.279 2.279 0 0 1-.676-1.623 2.284 2.284 0 0 1 .676-1.623L34.871 3.907a2.279 2.279 0 0 0 .676-1.623 2.284 2.284 0 0 0-.676-1.623 2.285 2.285 0 0 0-3.222 0L21.158 11.152a6.859 6.859 0 0 0 0 9.692l10.491 10.491a2.289 2.289 0 0 0 3.898-1.623 2.287 2.287 0 0 0-.676-1.623z"/></symbol><symbol id="icon-arrow_left" viewBox="0 0 18 32"><path d="M5.943 17.622a2.279 2.279 0 0 1-.676-1.623 2.284 2.284 0 0 1 .676-1.623L16.434 3.907a2.279 2.279 0 0 0 .676-1.623 2.284 2.284 0 0 0-.676-1.623 2.285 2.285 0 0 0-3.222 0L2.721 11.152a6.859 6.859 0 0 0 0 9.692l10.491 10.491a2.289 2.289 0 0 0 3.898-1.623 2.287 2.287 0 0 0-.676-1.623L5.943 17.621z"/></symbol><symbol id="icon-arrow_down" viewBox="0 0 56 32"><path d="M25.397 21.134A3.675 3.675 0 0 0 28 22.219a3.67 3.67 0 0 0 2.603-1.085l16.794-16.83A3.675 3.675 0 0 1 50 3.219a3.67 3.67 0 0 1 2.603 6.255l-16.83 16.83a11 11 0 0 1-15.546 0L3.397 9.474a3.669 3.669 0 0 1-.791-3.975A3.659 3.659 0 0 1 4.59 3.5a3.651 3.651 0 0 1 2.82 0c.447.186.852.459 1.193.803l16.793 16.83z"/></symbol><symbol id="icon-align-left" viewBox="0 0 32 32"><path stroke-width="2.286" stroke-linecap="round" stroke-linejoin="round" d="M22.667 13.333H4M28 8H4M28 18.667H4M22.667 24H4"/></symbol><symbol id="icon-arrow-narrow-right" viewBox="0 0 32 32"><path stroke="#eac645" stroke-width="3.2" stroke-linecap="round" stroke-linejoin="round" d="M5.333 16h21.333m.001 0-8-8m8 8-8 8"/></symbol><symbol id="icon-caret-down" viewBox="0 0 28 32"><path fill="#fff" stroke="#fff" d="M5.898 12h16.513l-7.423 8.391c-.221.25-.521.39-.834.39s-.613-.14-.834-.39L5.898 12z"/></symbol><symbol id="icon-lock" viewBox="0 0 32 32"><path d="M21.6 29.143H10.4c-2.4 0-3.657 0-4.686-.571-1.029-.457-1.714-1.257-2.286-2.286-.571-1.143-.571-2.286-.571-4.686v-.571c0-2.4 0-3.657.571-4.686.457-1.029 1.257-1.714 2.286-2.286.686-.343 1.486-.457 2.514-.571v-2.857c0-4.343 3.543-7.771 7.771-7.771 4.343 0 7.771 3.543 7.771 7.771v2.857c1.029 0 1.829.229 2.514.571 1.029.457 1.714 1.257 2.286 2.286.571 1.143.571 2.286.571 4.686v.571c0 2.4 0 3.657-.571 4.686-.457.914-1.257 1.714-2.286 2.286s-2.286.571-4.686.571zM10.4 15.771c-1.943 0-3.086 0-3.657.343a2.266 2.266 0 0 0-1.257 1.257c-.343.571-.343 1.714-.343 3.657v.571c0 1.943 0 3.086.343 3.657a2.266 2.266 0 0 0 1.257 1.257c.571.343 1.714.343 3.657.343h11.2c1.943 0 3.086 0 3.657-.343a2.266 2.266 0 0 0 1.257-1.257c.343-.571.343-1.714.343-3.657v-.571c0-1.943 0-3.086-.343-3.657a2.266 2.266 0 0 0-1.257-1.257c-.571-.343-1.714-.343-3.657-.343H10.4zm.114-2.285H21.6v-2.857c0-3.086-2.514-5.486-5.486-5.486s-5.6 2.514-5.6 5.486v2.857z"/></symbol><symbol id="icon-open_book" viewBox="0 0 34 32"><path d="M32.716 8.869a15.813 15.813 0 0 0-2.24-.953v18.801a15.321 15.321 0 0 0-5.333-.969c-2.895 0-5.76.844-8.381 2.469V9.306c-2.469-1.454-5.318-2.313-8.381-2.313-2.728 0-5.303.688-7.573 1.875-.503.25-.808.797-.808 1.375v18.88c0 .906.716 1.547 1.524 1.547.244 0 .488-.063.731-.188 1.844-.985 3.916-1.61 6.126-1.61 3.154 0 6.065 1.282 8.381 3.126 2.316-1.844 5.227-3.126 8.381-3.126 2.21 0 4.282.625 6.126 1.625.244.125.488.188.731.188.792 0 1.524-.641 1.524-1.547V10.243c0-.578-.305-1.125-.808-1.375zM13.714 26.717c-1.737-.641-3.52-.969-5.333-.969s-3.596.328-5.333.969V11.229a13.263 13.263 0 0 1 5.333-1.11c1.829 0 3.642.391 5.333 1.125v15.473zM27.429 1.524 19.81 9.338v14.847l7.619-7.033V1.523z"/></symbol><symbol id="icon-arrow_up" viewBox="0 0 55 32"><path d="M1.091 25.309 25.527.8c.291-.291.606-.496.945-.617.339-.122.703-.183 1.091-.183s.752.061 1.091.183c.339.12.655.326.946.617l24.509 24.509c.679.679 1.018 1.527 1.018 2.545s-.364 1.891-1.091 2.618c-.727.727-1.576 1.091-2.545 1.091s-1.818-.364-2.545-1.091L27.564 9.09 6.182 30.472c-.679.679-1.515 1.018-2.508 1.018-.995 0-1.856-.364-2.583-1.091S0 28.823 0 27.854c0-.97.364-1.818 1.091-2.545z"/></symbol><symbol id="icon-trash" viewBox="0 0 32 32"><path fill="none" stroke-width="2.909" stroke-linecap="round" stroke-linejoin="round" d="M12 4h8M4 8h24m-2.667 0-.935 14.026c-.14 2.104-.21 3.157-.665 3.954a4 4 0 0 1-1.731 1.619c-.826.4-1.881.4-3.99.4h-4.025c-2.109 0-3.163 0-3.99-.4a4.005 4.005 0 0 1-1.731-1.619c-.455-.798-.525-1.85-.665-3.954L6.666 8m6.667 6v6.667M18.667 14v6.667"/></symbol><symbol id="icon-user" viewBox="0 0 23 32"><path d="M.296 30.963a11.26 11.26 0 1 1 22.519 0H.297zm11.26-12.667c-4.666 0-8.444-3.779-8.444-8.444s3.779-8.444 8.444-8.444C16.222 1.408 20 5.187 20 9.852s-3.779 8.444-8.444 8.444z"/></symbol><symbol id="icon-logo" viewBox="0 0 24 24"><path d="m0 0 12.257 12.129L24 24V0H0Z" fill="#F6F6F6"/><path d="m3.343 3.171 8.957 8.872 8.443 8.614h-17.4V3.171Z" fill="#F6F6F6"/><path d="m20.8 20.714-8.958-8.872L3.4 3.228h17.4v17.486Z" fill="#4F2EE8"/><path d="M6.943 6.771 11.7 11.53l5.443 5.442h-10.2v-10.2Z" fill="#4F2EE8"/><path d="M6.943 6.771 11.7 11.53l5.443 5.442v-10.2h-10.2Z" fill="#F6F6F6"/></symbol><symbol id="icon-x-close" viewBox="0 0 32 32"><path d="M28.444 31.111c-.711 0-1.422-.178-1.956-.711L15.999 19.733 5.51 30.222c-1.067 1.067-2.667 1.067-3.733 0s-1.067-2.667 0-3.733L12.266 16 1.599 5.511c-1.067-1.067-1.067-2.667 0-3.733s2.667-1.067 3.733 0l10.667 10.489L26.488 1.778c1.067-1.067 2.667-1.067 3.733 0s1.067 2.667 0 3.733L19.732 16l10.489 10.489c1.067 1.067 1.067 2.667 0 3.733-.356.711-1.067.889-1.778.889z"/></symbol><symbol id="icon-email" viewBox="0 0 38 32"><path d="M27.782 30.982H10.037c-3.055 0-4.655 0-5.964-.727-1.309-.582-2.182-1.6-2.909-2.909-.727-1.455-.727-2.909-.727-5.964V7.127c.145-1.018.291-1.745.582-2.473.582-1.309 1.6-2.182 2.909-2.909 1.455-.727 2.909-.727 5.964-.727h17.6c3.055 0 4.655 0 5.964.727 1.309.582 2.182 1.6 2.909 2.909.436.727.582 1.455.582 2.473.145.291.145.582 0 .727v13.673c0 3.055 0 4.655-.727 5.964-.582 1.309-1.6 2.182-2.909 2.909-1.018.582-2.473.582-5.527.582zM4.218 26.764c.291.436.727.727 1.164.873.727.436 2.182.436 4.655.436h17.6c2.473 0 3.927 0 4.655-.436.436-.291.873-.582 1.164-.873l-9.891-9.018-.727.582c-1.164.873-1.891 1.309-2.764 1.6-.727.145-1.6.145-2.327 0-.873-.145-1.6-.727-2.764-1.6l-.727-.582L4.22 26.764zm21.818-10.619 8.291 7.564V10.327l-8.291 5.818zM3.345 10.327V23.709l8.291-7.564-8.291-5.818zm11.491 4.509L16.581 16c.873.582 1.455 1.018 1.745 1.164s.582.145.873 0c.291-.145.873-.436 1.745-1.164l1.745-1.164 11.345-8c0-.436-.145-.727-.291-1.018a2.883 2.883 0 0 0-1.6-1.6c-.727-.436-2.182-.436-4.655-.436H10.033c-2.473 0-3.927 0-4.655.436s-1.309 1.018-1.6 1.6c-.145.291-.145.582-.291 1.018l11.345 8z"/></symbol><symbol id="icon-cart" viewBox="0 0 25 32"><path d="M22.815 8.593h-4.444V7.112a5.93 5.93 0 0 0-5.926-5.926 5.93 5.93 0 0 0-5.926 5.926v1.481H2.075a1.482 1.482 0 0 0-1.482 1.482v16.296a4.444 4.444 0 0 0 4.445 4.445h14.815a4.444 4.444 0 0 0 4.445-4.445V10.075a1.482 1.482 0 0 0-1.481-1.482zM9.482 7.111a2.962 2.962 0 0 1 5.058-2.095c.556.556.868 1.309.868 2.095v1.481H9.482V7.111zM21.333 26.37a1.478 1.478 0 0 1-1.482 1.481H5.036a1.482 1.482 0 0 1-1.482-1.481V11.555h2.963v1.481a1.482 1.482 0 1 0 2.964 0v-1.481h5.926v1.481a1.482 1.482 0 1 0 2.964 0v-1.481h2.963V26.37z"/></symbol><symbol id="icon-menu-burger" viewBox="0 0 32 32"><path d="M22.629 14.514H4c-.686 0-1.143-.457-1.143-1.143S3.314 12.228 4 12.228h18.629c.686 0 1.143.457 1.143 1.143s-.457 1.143-1.143 1.143zM28 9.143H4c-.686 0-1.143-.457-1.143-1.143S3.314 6.857 4 6.857h24c.686 0 1.143.457 1.143 1.143S28.686 9.143 28 9.143zM28 19.771H4c-.686 0-1.143-.457-1.143-1.143S3.314 17.485 4 17.485h24c.686 0 1.143.457 1.143 1.143s-.457 1.143-1.143 1.143zM22.629 25.143H4c-.686 0-1.143-.457-1.143-1.143S3.314 22.857 4 22.857h18.629c.686 0 1.143.457 1.143 1.143s-.457 1.143-1.143 1.143z"/></symbol></defs></svg>