<svg aria-hidden="true" style="position: absolute; width: 0; height: 0; overflow: hidden;" version="1.1" xmlns="http://www.w3.org/2000/svg" xmlns:xlink="http://www.w3.org/1999/xlink">
<defs>
<symbol id="icon-align-left" viewBox="0 0 32 32">
<path stroke-width="2.2857" stroke-miterlimit="4" stroke-linecap="round" stroke-linejoin="round" d="M22.667 13.333h-18.667"></path>
<path stroke-width="2.2857" stroke-miterlimit="4" stroke-linecap="round" stroke-linejoin="round" d="M28 8h-24"></path>
<path stroke-width="2.2857" stroke-miterlimit="4" stroke-linecap="round" stroke-linejoin="round" d="M28 18.667h-24"></path>
<path stroke-width="2.2857" stroke-miterlimit="4" stroke-linecap="round" stroke-linejoin="round" d="M22.667 24h-18.667"></path>
</symbol>
<symbol id="icon-arrow-narrow-right" viewBox="0 0 32 32">
<path stroke-width="3.2" stroke-miterlimit="4" stroke-linecap="round" stroke-linejoin="round" d="M5.333 16h21.333M26.667 16l-8-8M26.667 16l-8 8"></path>
</symbol>
<symbol id="icon-caret-down" viewBox="0 0 28 32">
<path d="M5.898 12h16.513l-7.423 8.391c-0.221 0.25-0.521 0.39-0.834 0.39s-0.613-0.14-0.834-0.39l-7.422-8.391z"></path>
</symbol>
<symbol id="icon-lock" viewBox="0 0 32 32">
<path stroke-width="2.6667" stroke-miterlimit="4" stroke-linecap="round" stroke-linejoin="round" d="M23.778 14.444v-4.667c0-4.296-3.482-7.778-7.778-7.778s-7.778 3.482-7.778 7.778v4.667M9.467 30h13.067c2.614 0 3.92 0 4.919-0.509 0.878-0.447 1.592-1.161 2.039-2.039 0.509-0.998 0.509-2.305 0.509-4.919v-0.622c0-2.614 0-3.92-0.509-4.919-0.447-0.878-1.161-1.592-2.039-2.039-0.998-0.509-2.305-0.509-4.919-0.509h-13.067c-2.614 0-3.92 0-4.919 0.509-0.878 0.447-1.592 1.161-2.039 2.039-0.509 0.998-0.509 2.305-0.509 4.919v0.622c0 2.614 0 3.92 0.509 4.919 0.447 0.878 1.161 1.592 2.039 2.039 0.998 0.509 2.305 0.509 4.919 0.509z"></path>
</symbol>
<symbol id="icon-mail" viewBox="0 0 38 32">
<path stroke-width="2.9091" stroke-miterlimit="4" stroke-linecap="round" stroke-linejoin="round" d="M35.030 26.182l-11.273-10.182M14.060 16l-11.273 10.182M1.939 7.515l13.856 9.699c1.122 0.785 1.683 1.178 2.293 1.33 0.539 0.134 1.103 0.134 1.642 0 0.61-0.152 1.171-0.545 2.293-1.33l13.856-9.699M10.085 29.576h17.648c2.851 0 4.277 0 5.366-0.555 0.958-0.488 1.737-1.267 2.225-2.225 0.555-1.089 0.555-2.515 0.555-5.366v-10.861c0-2.851 0-4.277-0.555-5.366-0.488-0.958-1.267-1.737-2.225-2.225-1.089-0.555-2.515-0.555-5.366-0.555h-17.648c-2.851 0-4.277 0-5.366 0.555-0.958 0.488-1.737 1.267-2.225 2.225-0.555 1.089-0.555 2.515-0.555 5.366v10.861c0 2.851 0 4.277 0.555 5.366 0.488 0.958 1.267 1.737 2.225 2.225 1.089 0.555 2.515 0.555 5.366 0.555z"></path>
</symbol>
<symbol id="icon-open_book" viewBox="0 0 34 32">
<path d="M32.716 8.869c-0.716-0.375-1.463-0.688-2.24-0.953v18.801c-1.737-0.641-3.52-0.969-5.333-0.969-2.895 0-5.76 0.844-8.381 2.469v-18.911c-2.469-1.454-5.318-2.313-8.381-2.313-2.728 0-5.303 0.688-7.573 1.875-0.503 0.25-0.808 0.797-0.808 1.375v18.88c0 0.906 0.716 1.547 1.524 1.547 0.244 0 0.488-0.063 0.731-0.188 1.844-0.985 3.916-1.61 6.126-1.61 3.154 0 6.065 1.282 8.381 3.126 2.316-1.844 5.227-3.126 8.381-3.126 2.21 0 4.282 0.625 6.126 1.625 0.244 0.125 0.488 0.188 0.731 0.188 0.792 0 1.524-0.641 1.524-1.547v-18.895c0-0.578-0.305-1.125-0.808-1.375zM13.714 26.717c-1.737-0.641-3.52-0.969-5.333-0.969s-3.596 0.328-5.333 0.969v-15.488c1.691-0.735 3.474-1.11 5.333-1.11 1.829 0 3.642 0.391 5.333 1.125v15.473zM27.429 1.524l-7.619 7.814v14.847l7.619-7.033v-15.629z"></path>
</symbol>
<symbol id="icon-scroll_up" viewBox="0 0 55 32">
<path d="M1.091 25.309l24.436-24.509c0.291-0.291 0.606-0.496 0.945-0.617 0.339-0.122 0.703-0.183 1.091-0.183s0.752 0.061 1.091 0.183c0.339 0.12 0.655 0.326 0.946 0.617l24.509 24.509c0.679 0.679 1.018 1.527 1.018 2.545s-0.364 1.891-1.091 2.618c-0.727 0.727-1.576 1.091-2.545 1.091s-1.818-0.364-2.545-1.091l-21.382-21.382-21.382 21.382c-0.679 0.679-1.515 1.018-2.508 1.018-0.995 0-1.856-0.364-2.583-1.091s-1.091-1.576-1.091-2.545c0-0.97 0.364-1.818 1.091-2.545z"></path>
</symbol>
<symbol id="icon-trash" viewBox="0 0 32 32">
<path stroke-width="2.9091" stroke-miterlimit="4" stroke-linecap="round" stroke-linejoin="round" d="M12 4h8M4 8h24M25.333 8l-0.935 14.026c-0.14 2.104-0.21 3.157-0.665 3.954-0.4 0.702-1.004 1.267-1.731 1.619-0.826 0.4-1.881 0.4-3.99 0.4h-4.025c-2.109 0-3.163 0-3.99-0.4-0.727-0.353-1.331-0.917-1.731-1.619-0.455-0.798-0.525-1.85-0.665-3.954l-0.935-14.026M13.333 14v6.667M18.667 14v6.667"></path>
</symbol>
<symbol id="icon-user" viewBox="0 0 23 32">
<path d="M0.296 30.963c0-2.986 1.186-5.85 3.298-7.962s4.975-3.298 7.962-3.298 5.85 1.186 7.961 3.298c2.112 2.112 3.298 4.975 3.298 7.962h-22.518zM11.556 18.296c-4.666 0-8.444-3.779-8.444-8.444s3.779-8.444 8.444-8.444c4.666 0 8.444 3.779 8.444 8.444s-3.779 8.444-8.444 8.444z"></path>
</symbol>
<symbol id="icon-x-close" viewBox="0 0 32 32">
<path stroke-width="3.4286" stroke-miterlimit="4" stroke-linecap="round" stroke-linejoin="round" d="M24 8l-16 16M8 8l16 16"></path>
</symbol>
<symbol id="icon-logo" viewBox="0 0 24 24">
<path d="M0 0L12.2571 12.1286L24 24V0H0Z" fill="#F6F6F6"/>
<path d="M3.34277 3.17145L12.2999 12.0429L20.7428 20.6572H3.34277V3.17145Z" fill="#F6F6F6"/>
<path d="M20.7997 20.7137L11.8425 11.8423L3.39966 3.22797H20.7997V20.7137Z" fill="#4F2EE8"/>
<path d="M6.94287 6.77142L11.7 11.5286L17.1429 16.9714H6.94287V6.77142Z" fill="#4F2EE8"/>
<path d="M6.94287 6.77142L11.7 11.5286L17.1429 16.9714V6.77142H6.94287Z" fill="#F6F6F6"/>
</symbol>
</defs>
</svg>