<svg aria-hidden="true" style="position: absolute; width: 0; height: 0; overflow: hidden;" version="1.1" xmlns="http://www.w3.org/2000/svg" xmlns:xlink="http://www.w3.org/1999/xlink">
<defs>
<symbol id="icon-arrow_right" viewBox="0 0 18 32">
<path d="M12.343 17.622c0.214-0.212 0.384-0.465 0.5-0.744s0.176-0.577 0.176-0.879c0-0.302-0.060-0.601-0.176-0.879s-0.286-0.531-0.5-0.744l-10.491-10.469c-0.214-0.212-0.384-0.465-0.5-0.744s-0.176-0.577-0.176-0.879c0-0.302 0.060-0.601 0.176-0.879s0.286-0.531 0.5-0.744c0.428-0.426 1.008-0.665 1.611-0.665s1.183 0.239 1.611 0.665l10.491 10.491c1.284 1.286 2.005 3.029 2.005 4.846s-0.721 3.56-2.005 4.846l-10.491 10.491c-0.426 0.422-1 0.66-1.6 0.663-0.301 0.002-0.599-0.056-0.877-0.17s-0.532-0.281-0.745-0.493c-0.214-0.212-0.384-0.465-0.5-0.744s-0.176-0.577-0.176-0.879c0-0.302 0.060-0.6 0.176-0.879s0.286-0.531 0.5-0.744l10.491-10.468z"></path>
</symbol>
<symbol id="icon-arrow_right2" viewBox="0 0 37 32">
<path d="M12.343 17.622c0.214-0.212 0.384-0.465 0.5-0.744s0.176-0.577 0.176-0.879c0-0.302-0.060-0.601-0.176-0.879s-0.286-0.531-0.5-0.744l-10.491-10.469c-0.214-0.212-0.384-0.465-0.5-0.744s-0.176-0.577-0.176-0.879c0-0.302 0.060-0.601 0.176-0.879s0.286-0.531 0.5-0.744c0.428-0.426 1.008-0.665 1.611-0.665s1.183 0.239 1.611 0.665l10.491 10.491c1.284 1.286 2.005 3.029 2.005 4.846s-0.721 3.56-2.005 4.846l-10.491 10.491c-0.426 0.422-1 0.66-1.6 0.663-0.301 0.002-0.599-0.056-0.877-0.17s-0.532-0.281-0.745-0.493c-0.214-0.212-0.384-0.465-0.5-0.744s-0.176-0.577-0.176-0.879c0-0.302 0.060-0.6 0.176-0.879s0.286-0.531 0.5-0.744z"></path>
<path d="M30.147 17.622c0.214-0.212 0.384-0.465 0.5-0.744s0.176-0.577 0.176-0.879c0-0.302-0.060-0.601-0.176-0.879s-0.286-0.531-0.5-0.744l-10.491-10.469c-0.214-0.212-0.384-0.465-0.5-0.744s-0.176-0.577-0.176-0.879c0-0.302 0.060-0.601 0.176-0.879s0.286-0.531 0.5-0.744c0.428-0.426 1.008-0.665 1.611-0.665s1.183 0.239 1.611 0.665l10.491 10.491c1.284 1.286 2.005 3.029 2.005 4.846s-0.721 3.56-2.005 4.846l-10.491 10.491c-0.426 0.422-1 0.66-1.6 0.663-0.301 0.002-0.599-0.056-0.878-0.17s-0.532-0.281-0.745-0.493c-0.214-0.212-0.384-0.465-0.5-0.744s-0.176-0.577-0.176-0.879c0-0.302 0.060-0.6 0.176-0.879s0.286-0.531 0.5-0.744z"></path>
</symbol>
<symbol id="icon-arrow_left2" viewBox="0 0 37 32">
<path d="M5.943 17.622c-0.214-0.212-0.384-0.465-0.5-0.744s-0.176-0.577-0.176-0.879c0-0.302 0.060-0.601 0.176-0.879s0.286-0.531 0.5-0.744l10.491-10.469c0.214-0.212 0.384-0.465 0.5-0.744s0.176-0.577 0.176-0.879c0-0.302-0.060-0.601-0.176-0.879s-0.286-0.531-0.5-0.744c-0.428-0.426-1.008-0.665-1.611-0.665s-1.183 0.239-1.611 0.665l-10.491 10.491c-1.284 1.286-2.005 3.029-2.005 4.846s0.721 3.56 2.005 4.846l10.491 10.491c0.426 0.422 1 0.66 1.6 0.663 0.301 0.002 0.599-0.056 0.877-0.17s0.532-0.281 0.745-0.493c0.214-0.212 0.384-0.465 0.5-0.744s0.176-0.577 0.176-0.879c0-0.302-0.060-0.6-0.176-0.879s-0.286-0.531-0.5-0.744z"></path>
<path d="M24.38 17.622c-0.214-0.212-0.384-0.465-0.5-0.744s-0.176-0.577-0.176-0.879c0-0.302 0.060-0.601 0.176-0.879s0.286-0.531 0.5-0.744l10.491-10.469c0.214-0.212 0.384-0.465 0.5-0.744s0.176-0.577 0.176-0.879c0-0.302-0.060-0.601-0.176-0.879s-0.286-0.531-0.5-0.744c-0.428-0.426-1.008-0.665-1.611-0.665s-1.183 0.239-1.611 0.665l-10.491 10.491c-1.284 1.286-2.005 3.029-2.005 4.846s0.721 3.56 2.005 4.846l10.491 10.491c0.426 0.422 1 0.66 1.6 0.663 0.301 0.002 0.599-0.056 0.877-0.17s0.532-0.281 0.745-0.493c0.214-0.212 0.384-0.465 0.5-0.744s0.176-0.577 0.176-0.879c0-0.302-0.060-0.6-0.176-0.879s-0.286-0.531-0.5-0.744z"></path>
</symbol>
<symbol id="icon-arrow_left" viewBox="0 0 18 32">
<path d="M5.943 17.622c-0.214-0.212-0.384-0.465-0.5-0.744s-0.176-0.577-0.176-0.879c0-0.302 0.060-0.601 0.176-0.879s0.286-0.531 0.5-0.744l10.491-10.469c0.214-0.212 0.384-0.465 0.5-0.744s0.176-0.577 0.176-0.879c0-0.302-0.060-0.601-0.176-0.879s-0.286-0.531-0.5-0.744c-0.428-0.426-1.008-0.665-1.611-0.665s-1.183 0.239-1.611 0.665l-10.491 10.491c-1.284 1.286-2.005 3.029-2.005 4.846s0.721 3.56 2.005 4.846l10.491 10.491c0.426 0.422 1 0.66 1.6 0.663 0.301 0.002 0.599-0.056 0.877-0.17s0.532-0.281 0.745-0.493c0.214-0.212 0.384-0.465 0.5-0.744s0.176-0.577 0.176-0.879c0-0.302-0.060-0.6-0.176-0.879s-0.286-0.531-0.5-0.744l-10.491-10.468z"></path>
</symbol>
<symbol id="icon-arrow_down" viewBox="0 0 56 32">
<path d="M25.397 21.134c0.341 0.344 0.746 0.616 1.193 0.803s0.926 0.282 1.41 0.282c0.484 0 0.963-0.096 1.41-0.282s0.852-0.459 1.193-0.803l16.794-16.83c0.341-0.344 0.746-0.616 1.193-0.803s0.926-0.282 1.41-0.282c0.484 0 0.963 0.096 1.41 0.282s0.852 0.459 1.193 0.803c0.683 0.687 1.066 1.616 1.066 2.585s-0.383 1.898-1.066 2.585l-16.83 16.83c-2.063 2.060-4.858 3.217-7.773 3.217s-5.711-1.157-7.773-3.217l-16.83-16.83c-0.677-0.683-1.059-1.605-1.063-2.567-0.003-0.483 0.090-0.961 0.272-1.408s0.451-0.853 0.791-1.196c0.341-0.344 0.746-0.616 1.193-0.803s0.926-0.282 1.41-0.282 0.963 0.096 1.41 0.282c0.447 0.186 0.852 0.459 1.193 0.803l16.793 16.83z"></path>
</symbol>
<symbol id="icon-align-left" viewBox="0 0 32 32">
<path stroke-width="2.2857" stroke-miterlimit="4" stroke-linecap="round" stroke-linejoin="round" d="M22.667 13.333h-18.667"></path>
<path stroke-width="2.2857" stroke-miterlimit="4" stroke-linecap="round" stroke-linejoin="round" d="M28 8h-24"></path>
<path stroke-width="2.2857" stroke-miterlimit="4" stroke-linecap="round" stroke-linejoin="round" d="M28 18.667h-24"></path>
<path stroke-width="2.2857" stroke-miterlimit="4" stroke-linecap="round" stroke-linejoin="round" d="M22.667 24h-18.667"></path>
</symbol>
<symbol id="icon-arrow-narrow-right" viewBox="0 0 32 32">
<path stroke="#eac645" stroke-width="3.2" stroke-miterlimit="4" stroke-linecap="round" stroke-linejoin="round" d="M5.333 16h21.333M26.667 16l-8-8M26.667 16l-8 8"></path>
</symbol>
<symbol id="icon-caret-down" viewBox="0 0 28 32">
<path fill="#fff" stroke="#fff" d="M5.898 12h16.513l-7.423 8.391c-0.221 0.25-0.521 0.39-0.834 0.39s-0.613-0.14-0.834-0.39l-7.422-8.391z"></path>
</symbol>
<symbol id="icon-lock" viewBox="0 0 32 32">
<path fill="none" stroke-width="2.6667" stroke-miterlimit="4" stroke-linecap="round" stroke-linejoin="round" d="M23.778 14.444v-4.667c0-4.296-3.482-7.778-7.778-7.778s-7.778 3.482-7.778 7.778v4.667M9.467 30h13.067c2.614 0 3.92 0 4.919-0.509 0.878-0.447 1.592-1.161 2.039-2.039 0.509-0.998 0.509-2.305 0.509-4.919v-0.622c0-2.614 0-3.92-0.509-4.919-0.447-0.878-1.161-1.592-2.039-2.039-0.998-0.509-2.305-0.509-4.919-0.509h-13.067c-2.614 0-3.92 0-4.919 0.509-0.878 0.447-1.592 1.161-2.039 2.039-0.509 0.998-0.509 2.305-0.509 4.919v0.622c0 2.614 0 3.92 0.509 4.919 0.447 0.878 1.161 1.592 2.039 2.039 0.998 0.509 2.305 0.509 4.919 0.509z"></path>
</symbol>
<symbol id="icon-open_book" viewBox="0 0 34 32">
<path d="M32.716 8.869c-0.716-0.375-1.463-0.688-2.24-0.953v18.801c-1.737-0.641-3.52-0.969-5.333-0.969-2.895 0-5.76 0.844-8.381 2.469v-18.911c-2.469-1.454-5.318-2.313-8.381-2.313-2.728 0-5.303 0.688-7.573 1.875-0.503 0.25-0.808 0.797-0.808 1.375v18.88c0 0.906 0.716 1.547 1.524 1.547 0.244 0 0.488-0.063 0.731-0.188 1.844-0.985 3.916-1.61 6.126-1.61 3.154 0 6.065 1.282 8.381 3.126 2.316-1.844 5.227-3.126 8.381-3.126 2.21 0 4.282 0.625 6.126 1.625 0.244 0.125 0.488 0.188 0.731 0.188 0.792 0 1.524-0.641 1.524-1.547v-18.895c0-0.578-0.305-1.125-0.808-1.375zM13.714 26.717c-1.737-0.641-3.52-0.969-5.333-0.969s-3.596 0.328-5.333 0.969v-15.488c1.691-0.735 3.474-1.11 5.333-1.11 1.829 0 3.642 0.391 5.333 1.125v15.473zM27.429 1.524l-7.619 7.814v14.847l7.619-7.033v-15.629z"></path>
</symbol>
<symbol id="icon-arrow_up" viewBox="0 0 55 32">
<path d="M1.091 25.309l24.436-24.509c0.291-0.291 0.606-0.496 0.945-0.617 0.339-0.122 0.703-0.183 1.091-0.183s0.752 0.061 1.091 0.183c0.339 0.12 0.655 0.326 0.946 0.617l24.509 24.509c0.679 0.679 1.018 1.527 1.018 2.545s-0.364 1.891-1.091 2.618c-0.727 0.727-1.576 1.091-2.545 1.091s-1.818-0.364-2.545-1.091l-21.382-21.382-21.382 21.382c-0.679 0.679-1.515 1.018-2.508 1.018-0.995 0-1.856-0.364-2.583-1.091s-1.091-1.576-1.091-2.545c0-0.97 0.364-1.818 1.091-2.545z"></path>
</symbol>
<symbol id="icon-trash" viewBox="0 0 32 32">
<path fill="none" stroke-width="2.9091" stroke-miterlimit="4" stroke-linecap="round" stroke-linejoin="round" d="M12 4h8M4 8h24M25.333 8l-0.935 14.026c-0.14 2.104-0.21 3.157-0.665 3.954-0.4 0.702-1.004 1.267-1.731 1.619-0.826 0.4-1.881 0.4-3.99 0.4h-4.025c-2.109 0-3.163 0-3.99-0.4-0.727-0.353-1.331-0.917-1.731-1.619-0.455-0.798-0.525-1.85-0.665-3.954l-0.935-14.026M13.333 14v6.667M18.667 14v6.667"></path>
</symbol>
<symbol id="icon-user" viewBox="0 0 23 32">
<path d="M0.296 30.963c0-2.986 1.186-5.85 3.298-7.962s4.975-3.298 7.962-3.298 5.85 1.186 7.961 3.298c2.112 2.112 3.298 4.975 3.298 7.962h-22.518zM11.556 18.296c-4.666 0-8.444-3.779-8.444-8.444s3.779-8.444 8.444-8.444c4.666 0 8.444 3.779 8.444 8.444s-3.779 8.444-8.444 8.444z"></path>
</symbol>
<symbol id="icon-logo" viewBox="0 0 24 24">
<path d="M0 0L12.2571 12.1286L24 24V0H0Z" fill="#F6F6F6"/>
<path d="M3.34277 3.17145L12.2999 12.0429L20.7428 20.6572H3.34277V3.17145Z" fill="#F6F6F6"/>
<path d="M20.7997 20.7137L11.8425 11.8423L3.39966 3.22797H20.7997V20.7137Z" fill="#4F2EE8"/>
<path d="M6.94287 6.77142L11.7 11.5286L17.1429 16.9714H6.94287V6.77142Z" fill="#4F2EE8"/>
<path d="M6.94287 6.77142L11.7 11.5286L17.1429 16.9714V6.77142H6.94287Z" fill="#F6F6F6"/>
</symbol>
<symbol id="icon-x-close" viewBox="0 0 32 32">
<path d="M28.444 31.111c-0.711 0-1.422-0.178-1.956-0.711l-10.489-10.667-10.489 10.489c-1.067 1.067-2.667 1.067-3.733 0s-1.067-2.667 0-3.733l10.489-10.489-10.667-10.489c-1.067-1.067-1.067-2.667 0-3.733s2.667-1.067 3.733 0l10.667 10.489 10.489-10.489c1.067-1.067 2.667-1.067 3.733 0s1.067 2.667 0 3.733l-10.489 10.489 10.489 10.489c1.067 1.067 1.067 2.667 0 3.733-0.356 0.711-1.067 0.889-1.778 0.889z"></path>
</symbol>
<symbol id="icon-email" viewBox="0 0 38 32">
<path d="M27.782 30.982h-17.745c-3.055 0-4.655 0-5.964-0.727-1.309-0.582-2.182-1.6-2.909-2.909-0.727-1.455-0.727-2.909-0.727-5.964v-10.764c0-1.018 0-2.036 0-2.764 0-0.291 0-0.582 0-0.727 0.145-1.018 0.291-1.745 0.582-2.473 0.582-1.309 1.6-2.182 2.909-2.909 1.455-0.727 2.909-0.727 5.964-0.727h17.6c3.055 0 4.655 0 5.964 0.727 1.309 0.582 2.182 1.6 2.909 2.909 0.436 0.727 0.582 1.455 0.582 2.473 0.145 0.291 0.145 0.582 0 0.727 0 0.727 0 1.6 0 2.764v10.909c0 3.055 0 4.655-0.727 5.964-0.582 1.309-1.6 2.182-2.909 2.909-1.018 0.582-2.473 0.582-5.527 0.582zM4.218 26.764c0.291 0.436 0.727 0.727 1.164 0.873 0.727 0.436 2.182 0.436 4.655 0.436h17.6c2.473 0 3.927 0 4.655-0.436 0.436-0.291 0.873-0.582 1.164-0.873l-9.891-9.018-0.727 0.582c-1.164 0.873-1.891 1.309-2.764 1.6-0.727 0.145-1.6 0.145-2.327 0-0.873-0.145-1.6-0.727-2.764-1.6l-0.727-0.582-10.036 9.018zM26.036 16.145l8.291 7.564c0-0.582 0-1.309 0-2.182v-10.909c0-0.145 0-0.145 0-0.291l-8.291 5.818zM3.345 10.327c0 0.145 0 0.145 0 0.291v10.909c0 0.873 0 1.6 0 2.182l8.291-7.564-8.291-5.818zM14.836 14.836l1.745 1.164c0.873 0.582 1.455 1.018 1.745 1.164s0.582 0.145 0.873 0c0.291-0.145 0.873-0.436 1.745-1.164l1.745-1.164c0 0 0 0 0 0l11.345-8c0-0.436-0.145-0.727-0.291-1.018-0.291-0.727-0.873-1.309-1.6-1.6-0.727-0.436-2.182-0.436-4.655-0.436h-17.455c-2.473 0-3.927 0-4.655 0.436s-1.309 1.018-1.6 1.6c-0.145 0.291-0.145 0.582-0.291 1.018l11.345 8c0 0 0 0 0 0z"></path>
</symbol>
<symbol id="icon-cart" viewBox="0 0 25 32">
<path d="M22.815 8.593h-4.444v-1.481c0-1.572-0.624-3.079-1.736-4.19s-2.619-1.736-4.19-1.736c-1.572 0-3.079 0.624-4.19 1.736s-1.736 2.619-1.736 4.19v1.481h-4.444c-0.393 0-0.77 0.156-1.048 0.434s-0.434 0.655-0.434 1.048v16.296c0 1.179 0.468 2.309 1.302 3.143s1.964 1.302 3.143 1.302h14.815c1.179 0 2.309-0.468 3.143-1.302s1.302-1.964 1.302-3.143v-16.296c0-0.393-0.156-0.77-0.434-1.048s-0.655-0.434-1.047-0.434zM9.482 7.111c0-0.786 0.312-1.539 0.868-2.095s1.309-0.868 2.095-0.868c0.786 0 1.539 0.312 2.095 0.868s0.868 1.309 0.868 2.095v1.481h-5.926v-1.481zM21.333 26.37c0 0.393-0.156 0.77-0.434 1.047s-0.655 0.434-1.048 0.434h-14.815c-0.393 0-0.77-0.156-1.048-0.434s-0.434-0.655-0.434-1.047v-14.815h2.963v1.481c0 0.393 0.156 0.77 0.434 1.048s0.655 0.434 1.048 0.434c0.393 0 0.77-0.156 1.048-0.434s0.434-0.655 0.434-1.048v-1.481h5.926v1.481c0 0.393 0.156 0.77 0.434 1.048s0.655 0.434 1.048 0.434c0.393 0 0.77-0.156 1.048-0.434s0.434-0.655 0.434-1.048v-1.481h2.963v14.815z"></path>
</symbol>
<symbol id="icon-menu-burger" viewBox="0 0 32 32">
<path d="M22.629 14.514h-18.629c-0.686 0-1.143-0.457-1.143-1.143s0.457-1.143 1.143-1.143h18.629c0.686 0 1.143 0.457 1.143 1.143s-0.457 1.143-1.143 1.143z"></path>
<path d="M28 9.143h-24c-0.686 0-1.143-0.457-1.143-1.143s0.457-1.143 1.143-1.143h24c0.686 0 1.143 0.457 1.143 1.143s-0.457 1.143-1.143 1.143z"></path>
<path d="M28 19.771h-24c-0.686 0-1.143-0.457-1.143-1.143s0.457-1.143 1.143-1.143h24c0.686 0 1.143 0.457 1.143 1.143s-0.457 1.143-1.143 1.143z"></path>
<path d="M22.629 25.143h-18.629c-0.686 0-1.143-0.457-1.143-1.143s0.457-1.143 1.143-1.143h18.629c0.686 0 1.143 0.457 1.143 1.143s-0.457 1.143-1.143 1.143z"></path>
</symbol>
</defs>
</svg>